/* XPM */
static char *_d90431e565e4ba998a7b634c80cbe94R9E1q4vIcFLqkeqj[] = {
/* columns rows colors chars-per-pixel */
"64 64 229 2 ",
"   c #3B1900",
".  c #353F1A",
"X  c #570E00",
"o  c #590607",
"O  c #410D11",
"+  c #5D1515",
"@  c #420405",
"#  c #6A030B",
"$  c #7A0406",
"%  c #7D0612",
"&  c #623935",
"*  c #2A4300",
"=  c #35440F",
"-  c #3B4817",
";  c #3D5510",
":  c #424F19",
">  c #44531A",
",  c #445A19",
"<  c #49670B",
"1  c #51710E",
"2  c #4D661C",
"3  c #4B6714",
"4  c #537514",
"5  c #58771A",
"6  c #49542A",
"7  c #495723",
"8  c #525E2A",
"9  c #454E31",
"0  c #4E4F32",
"q  c #6B4629",
"w  c #4D6626",
"e  c #536325",
"r  c #546B23",
"t  c #596A2E",
"y  c #5C7525",
"u  c #5D7C25",
"i  c #5A7528",
"p  c #5B6938",
"a  c #5D7439",
"s  c #627C28",
"d  c #647A3B",
"f  c #657935",
"g  c #5D5749",
"h  c #596645",
"j  c #626243",
"k  c #6C7C4B",
"l  c #657642",
"z  c #707E49",
"x  c #736C5A",
"c  c #6F7857",
"v  c #767B5F",
"b  c #6C6C54",
"n  c #7B7463",
"m  c #797967",
"M  c #7D7A71",
"N  c #8A010C",
"B  c #860607",
"V  c #9D0005",
"C  c #95020B",
"Z  c #99020A",
"A  c #9A0605",
"S  c #8C0C12",
"D  c #860212",
"F  c #990719",
"G  c #8F1218",
"H  c #A20101",
"J  c #A90609",
"K  c #BD0302",
"L  c #B1040A",
"P  c #B60807",
"I  c #AA0414",
"U  c #BA0A15",
"Y  c #AC181E",
"T  c #A41219",
"R  c #BA1519",
"E  c #921A24",
"W  c #AE1420",
"Q  c #BB1522",
"!  c #973437",
"~  c #AE2F36",
"^  c #A5292B",
"/  c #C40C03",
"(  c #C40B0C",
")  c #C70607",
"_  c #D20708",
"`  c #CD1306",
"'  c #D2110C",
"]  c #C60C13",
"[  c #C51514",
"{  c #AB3947",
"}  c #9A4F53",
"|  c #B24D50",
" . c #B6615E",
".. c #A15C61",
"X. c #997D79",
"o. c #A86867",
"O. c #B17B7B",
"+. c #C54043",
"@. c #C85454",
"#. c #CD4752",
"$. c #E56574",
"%. c #678727",
"&. c #6A8632",
"*. c #769236",
"=. c #6D8347",
"-. c #758748",
";. c #78855D",
":. c #7E9658",
">. c #7E8969",
",. c #829B54",
"<. c #8EA557",
"1. c #848C68",
"2. c #889569",
"3. c #909F66",
"4. c #8A8A76",
"5. c #8E9A74",
"6. c #989878",
"7. c #98A978",
"8. c #93A96E",
"9. c #F07C89",
"0. c #969686",
"q. c #958682",
"w. c #9CAA82",
"e. c #9BA483",
"r. c #9EB388",
"t. c #A5A789",
"y. c #A6B389",
"u. c #ABA795",
"i. c #A8A59A",
"p. c #ACBB95",
"a. c #B5B198",
"s. c #ADB1A3",
"d. c #B6B5A9",
"f. c #BABAB2",
"g. c #EC9797",
"h. c #F98D94",
"j. c #C7A0A1",
"k. c #C2BFBA",
"l. c #DCBAB8",
"z. c #FDACB5",
"x. c #E0BFB6",
"c. c #FFB2B7",
"v. c #E1A7A3",
"b. c #B2C98E",
"n. c #B5C49C",
"m. c #B9C297",
"M. c #B9C5A8",
"N. c #C5C7AC",
"B. c #CCD6AF",
"V. c #C7D9AA",
"C. c #C9C7B8",
"Z. c #C7D5B6",
"A. c #C9D7B6",
"S. c #D5D4BB",
"D. c #D7E5B7",
"F. c #CCE2B4",
"G. c #CDD5C0",
"H. c #D4DDC4",
"J. c #D3D3CB",
"K. c #DCDBCD",
"L. c #D9DAC8",
"P. c #D9DDD5",
"I. c #D1CCC6",
"U. c #E4C0C0",
"Y. c #F8CEC0",
"T. c #E0DACB",
"R. c #FFD0CF",
"E. c #FFDBD2",
"W. c #E7DCD6",
"Q. c #D8E4C8",
"!. c #DEE2D9",
"~. c #E4F1CC",
"^. c #E8FBCE",
"/. c #F6FFCC",
"(. c #E4E3DB",
"). c #ECECDC",
"_. c #E7E7D8",
"`. c #F2EDDE",
"'. c #FFE0DE",
"]. c #E7F4D7",
"[. c #F4FBDC",
"{. c #E2E3C4",
"}. c #EAEBE2",
"|. c #EDEEEA",
" X c #E8E8E1",
".X c #FFEDEC",
"XX c #FFE5E6",
"oX c #ECF2E5",
"OX c #EEF1EB",
"+X c #EDFAE0",
"@X c #F3F3E3",
"#X c #F4FBE5",
"$X c #FBFFE4",
"%X c #F3F2EC",
"&X c #FDF4EC",
"*X c #F5FCEC",
"=X c #FDFDED",
"-X c #F9F7E0",
";X c #FFEEF5",
":X c #F5F6F5",
">X c #FCF5F3",
",X c #F6FEF3",
"<X c #FDFDF4",
"1X c #FEF6FC",
"2X c #F6FDFC",
"3X c #FFFBFF",
"4X c #FEF9FE",
"5X c #F9FFFD",
"6X c #F9FFFF",
"7X c #F8FFFF",
"8X c #FBFFFF",
"9X c #FBFFFE",
"0X c #FBFFFD",
"qX c #FCFFFD",
"wX c #FFFEFD",
"eX c #FFFFFD",
"rX c #FEFFFD",
"tX c #FFFCFF",
"yX c #FFFDFF",
"uX c #FFFDFF",
"iX c #FCFFFF",
"pX c #FDFEFF",
"aX c #FFFEFF",
"sX c #FEFFFF",
"dX c white",
"fX c #FEFEFE",
"gX c #FFFDFD",
"hX c #FFFFFE",
"jX c #F6F7FA",
/* pixels */
"dXdXdXdXdXdXdXdXdXdXdXdXdXdXdXdXgXdXdX8X8XdXgXgXgX<X2X0X:X0X2X,X8X,X,X,X>X<X<X0XdXgXgXgXgXgXgXdXdXdXdXdXdXdXdXdXdXdXdXdXdXdXdXdX",
"dXdXdXdXdXdXdXdXdXdXdXdXdXdXdXdXdXgXdXdX8XdXgXgX1XwXwX<X<XwX0XwX7X7X0X8XwX<X2XwXdXdXgXgXgXdX8XdXdXdXdXdXdXdXdXdXdXdXdXdXdXdXdXdX",
"dXdXdXdXdXdXdXdXdXdXdXdXdXdXdXdXdXdXdXdXdXdXdXdXdXdX<XdXgXdXdXjX8XgX1XgXgXdXwX,XwXwXwXwXdX8X8X7XdXdXdXdXdXdXdXdXdXdXdXdXdXdXdXdX",
"dXdXdXdXdXdXdXdXdXdXdXdXdXdXdXdXdX<XdXdXdXdX8X8XdXjXgXgX1XgXgXgXgXgXgX1X1XdXdXdXwXwX<XwXdX0X7X7XdXdXdXdXdXdXdXdXdXdXdXdXdXdXdXdX",
"dXdXdXdXdXdXdXdXdXdXdXdXdXdXdXdXwXwXwXwXdXdX8X7X8X4XgX1X1XgX1X1X4X1X1X1X8XjX4X<XwXwX<X<XwXwX0X0XdXdXdXdXdXdXdXdXdXdXdXdXdXdXdXdX",
"dXdXdXdXdXdXdXdXdXdXdXdXdXdXdXdX0XwXwXwXgXdX8X8X7X8XgX<XgXgX1X<X>X1X;X.X1X1X1X1X<X2XwXwXwXwXwX0XdXdXdXdXdXdXdXdXdXdXdXdXdXdXdXdX",
"dXdXdXdXdXdXdXdXdXdXdXdXdXdXdX8X2X7XdXgXgXgXdX8X7X7X8X8X8X:X<X&X&X.Xc.h.$.9.z.>XwX2XdXdXwXwXwX0XwXdXdXdXdXdXdXdXdXdXdXdXdXdXdXdX",
"dXdXdXdXdXdXdXdXdXdXdXdXdXdXdXdX8X7X8XdXgXgXdX8X7X7XjX0XwX<XXXo. .@.W Q ] Q ~ g..X>X1X1XgXgX0X8X0XdXdXdXdXdXdXdXdXdXdXdXdXdXdXdX",
"dXdXdXdXdXdXdXdXdXdXdXdXdXdXdXdXdXdXdXdX<XgX0X0X8XdXwX<XU...{ F W R ] ) ) [ R Y #.c.;X<X<XgXdX8XdXdXdXdXdXdXdXdXdXdXdXdXdXdXdXdX",
"dXdXdXdXdXdXdXdXdXdXdXdXdXdXdXdXgXdXdXdXdXdX8X2X8X<X<X<X.X} F I I U ] ) ) ) / ( U T g.>X1X<X8X2XdXdXdXdXdXdXdXdXdXdXdXdXdXdXdXdX",
"dXdXdXdXdXdXdXdXdXdXdXdXdXdXdXdXdXdX8X0XdXgXdXwXjX8XwX%X=Xv.E F B C U ) _ _ ` / / [ T h.>XwXjXgXdXdXdXdXdXdXdXdXdXdXdXdXdXdXdXdX",
"dXdXdXdXdXdXdXdXdXdXdXdXdXdXdXdXdX8X8X0X<XgXdXdXdXdX0X,X=X&X! S $ N Z L ( ' ` / ` K U ^ E.dXgX1XdXdXdXdXdXdXdXdXdXdXdXdXdXdXdXdX",
"dXdXdXdXdXdXdXdXdXdXdXdXdXdXdXdXdXdX8XwX<XdXdXdXdXgXjXdX<X&X| % D N C V H P ` ` / ) L @.&XwXgXgXgXdXdXdXdXdXdXdXdXdXdXdXdXdXdXdX",
"dXdXdXdXdXdXdXdXdXdXdXdXdXdXdXdXdXdXwXwXgX<X8X8XgXdXdXdX<X<Xo.# % D C A A V P P K J +.R..X<XgXgXdXdXdXdXdXdXdXdXdXdXdXdXdXdXdXdX",
"dXdXdXdXdXdXdXdXdXdXdXdXdXdXdXdXdXwXwX<XgXdX8X7XdX1X1XgXjX<XO.o # $ N C A J J J I | XX&X<XgXdX8XdXdXdXdXdXdXdXdXdXdXdXdXdXdXdXdX",
"dXdXdXdXdXdXdXdXdXdXdXdXdXdXdXdXwXwXwXwXwXdX7X8XgXgX1XgXgX<Xl.@ o # $ $ $ B S G | XX&X<XdX<X8X8X8XdXdXdXdXdXdXdXdXdXdXdXdXdXdXdX",
"dXdXdXdXdXdXdXdXdXdXdXdXdXdXdXdXdXwXwXwXdXdXdXdXdX1XdXjXwX<X<XX.O + X X o o + ..'..X<XgXjXdXdX4XdXdXdXdXdXdXdXdXdXdXdXdXdXdXdXdX",
"dXdXdXdXdXdXdXdXdXdXdXdXdXdXdXdXwXwXdXdXdXdXdXdXdXdXdXwXwX<X<XC.6.x.O q Y.& j.>X>X<X<X<XdXdXdXdXgXdXdXdXdXdXdXdXdXdXdXdXdXdXdXdX",
"dXdXdXdXdXdXdXdXdXdXdXdXdXdXdXdXwXwXdXdXdXdXdXdXjXdXdXjX<X(.f.f.%X<X0 6.=XW.C.I._._.%X<X<XwXwXdXdXdXdXdXdXdXdXdXdXdXdXdXdXdXdXdX",
"dXdXdXdXdXdXdXdXdXdXdXdXdXdXdXdXwXwXdXdXdXdXdXdXdXjXdX|.J.P.OX0X2X=Xh p.*X<X4X|. X).%X<X<X<XwXdXdXdXdXdXdXdXdXdXdXdXdXdXdXdXdXdX",
"dXdXdXdXdXdXdXdXdXdXdXdXdXdXdXdXwXwXdXdXdXdXdXdXwXdX<X<XwXwX<X*X<X].h ].,X2X7X2XgX<XgXgX<X<XwXwXdXdXdXdXdXdXdXdXdXdXdXdXdXdXdXdX",
"dXdXdXdXdXdXdXdXdXdXdXdXdXdXdXdXwXwXdXdXdXdXdXdXdXdXdXdX<X>XwX<X*XS.>.*X=X0X8XdXgX1X1XgXwX0X<XwXdXdXdXdXdXdXdXdXdXdXdXdXdXdXdXdX",
"dXdXdXdXdXdXdXdXdXdXdXdXdXdXdXdXwXwXdXdXdXdXdXdXjXdXjX<XwXwX,X<X=Xa.t.$X=X<X>XgXgXgXgXgXdXdX0X4XdXdXdXdXdXdXdXdXdXdXdXdXdXdXdXdX",
"dXdXdXdXdXdXdXdXdXdXdXdXdXdXdXdXwXwXdXdXdXdXdXdXdXwXdXwX0X<XwX<X$X6.N.=X<X<XgX1XgXgXgXgX4XdXdXgXdXdXdXdXdXdXdXdXdXdXdXdXdXdXdXdX",
"dXdXdXdXdXdXdXdXdXdXdXdXdXdXdXdXdXdXdXdXdXdXdXdXdXdXdXwXwXwXwX<X[.2.].=X=X<XwX<XwX0X0XdX8XdXgXgXdXdXdXdXdXdXdXdXdXdXdXdXdXdXdXdX",
"dXdXdXdXdXdXdXdXdXdXdXdXdXdXdXdXdXdXdXdXdXdXdXdXwXwX8XdXwXwXwX<X~.5.=X2XwX:XwXwX2X,X*X*X,XwXgXgXgXdXdXdXdXdXdXdXdXdXdXdXdXdXdXdX",
"dXdXdXdXdXdXdXdXdXdXdXdXdXdXdXdXdXdXdXdXdXdXdXdX0XwXdXdXdXwXdX<XV.5.,X7XdXdX<X=XQ.F.V.7.Q.<XdXgXdXdXdXdXdXdXdXdXdXdXdXdXdXdXdXdX",
"dXdXdXdXdXdXdXdXdXdXdXdXdXdXdXdXdXdXdXdXdXdXdXdXdXdXdXdXdXwXwX<Xb.r.2X:XjXdX=X5.a 7 i e B.=X:XgXgXdXdXdXdXdXdXdXdXdXdXdXdXdXdXdX",
"dXdXdXdXdXdXdXdXdXdXdXdXdXdXdXdXdXdXdXdXdXdXdXdXdXdXdXdXdXgXdX<Xt.m.<XdX<X@X2.p r < 3 e 2.$X<XdXdXdXdXdXdXdXdXdXdXdXdXdXdXdXdXdX",
"dXdXdXdXdXdXdXdXdXdXdXdXdXdXdXdXdXdXdXdXdXdXdXdXdXdXdXdXdXdXdX<X5.D.<X=XS.p e f &.s < s k Q.*XwXdXdXdXdXdXdXdXdXdXdXdXdXdXdXdXdX",
"dXdXdXdXdXdXdXdXdXdXdXdXdXdXdXdXdXdXdXdXdXdXdXdXdXwX0XdXdXdXdX<X;.m.=X*Xa ; &.%.*.*.s 2 l Q.*X,XwXdXdXdXdXdXdXdXdXdXdXdXdXdXdXdX",
"dXdXdXdXdXdXdXdXdXdXdXdXdXdXdXdXwXwXdXdXdXdXdXwXwXwXwX<XdXdXjX*Xp = 7.^.a 5 %.%.*.y s r h +X<X,XwXdXdXdXdXdXdXdXdXdXdXdXdXdXdXdX",
"dXdXdXdXdXdXdXdXdXdXdXdXdXdXwXwX<X<XdXdXdXdXdX<XwX<X<X<XwXdXwXH.: > 7 :.i u 4 %.%.y f l N.<X<X0XdXdXdXdXdXdXdXdXdXdXdXdXdXdXdXdX",
"dXdXdXdXdXdXdXdXdXdXdXdXdXdXdXwX<X<XdXdXdX8XwXwXwXwX<XdXdX8X<XH.: , ; * w i %.%.s &.-.D.=X<X2XwXdXdXdXdXdXdXdXdXdXdXdXdXdXdXdXdX",
"dXdXdXdXdXdXdXdXdXdXdXdXdXdXdXwXwX<XdX8X8XdXdXdXdXgX1XgXdXjX<XM.0 6 7 ; ; i w w d w.~.#X<X<X<XwXdXdXdXdXdXdXdXdXdXdXdXdXdXdXdXdX",
"dXdXdXdXdXdXdXdXdXdXdXdXdXdXdXdXdXdXdXdXdXdXdXwXgXgXgX1XgXgX<X4.4.e.- - i :.3.b.A.$X=XwXwXwXwXwXdXdXdXdXdXdXdXdXdXdXdXdXdXdXdXdX",
"dXdXdXdXdXdXdXdXdXdXdXdXdXdXdXdXdXgXgXdXdX8XdXwX>XdXgX1XgX1X<Xm 0.N.m 6 M./.D.D.$X=XwXgXdXjXwX<XwXdXdXdXdXdXdXdXdXdXdXdXdXdXdXdX",
"dXdXdXdXdXdXdXdXdXdXdXdXdXdXdXdXgXgXdXdXdXdXdX2X<X<XgX1XgX1X<X4.t.`.S.2.=.a 7 - v L.wXdXdXdXwXwXwXdXdXdXdXdXdXdXdXdXdXdXdXdXdXdX",
"dXdXdXdXdXdXdXdXdXdXdXdXdXdXdXdXdXdX<X<X8X8X0X=X[.$X<X<XgX<X=X0.0.[.f.C.c - w t : 6 K.dXgX1XwX<XwXdXdXdXdXdXdXdXdXdXdXdXdXdXdXdX",
"dXdXdXdXdXdXdXdXdXdXdXdXdXdXdXdXwX<X[.$X,X0X*X#X6.B.=XgX<X<X<Xu.6.S.(.|.s.9 7 e t 7 0.jXgXdXwXwXwXdXdXdXdXdXdXdXdXdXdXdXdXdXdXdX",
"dXdXdXdXdXdXdXdXdXdXdXdXdXdXdX<X].y.8.7.n.[.#Xb.z 3.).<XdXgX<XN.j S.-X%X|.0.6 = , 8 h ).dXdX0X<XwXdXdXdXdXdXdXdXdXdXdXdXdXdXdXdX",
"dXdXdXdXdXdXdXdXdXdXdXdXdXdXdX<X[.7.e s i l b.7.<.3.A.wXdX1XwXJ.j T.=X%X0XoXM.5.z c n J.:X8X0X0XdXdXdXdXdXdXdXdXdXdXdXdXdXdXdXdX",
"dXdXdXdXdXdXdXdXdXdXdXdXdXdXdXwX<X~.d 2 i i < 5 <.-.e.,X2XdXgXI.b Q.}.<X0X0X*X_.L.G.M.|.wX0XdX,XdXdXdXdXdXdXdXdXdXdXdXdXdXdXdXdX",
"dXdXdXdXdXdXdXdXdXdXdXdXdXdXdXwX<X#Xn.-.i 5 1 1 5 r 7.*X4X8XdXf.n ).&XwX0XjX7XjXOX|.|.|.<X2X0XwXdXdXdXdXdXdXdXdXdXdXdXdXdXdXdXdX",
"dXdXdXdXdXdXdXdXdXdXdXdXdXdXdXdX4XjX+XA.:.< 1 4 5 e y.#X4XgX<Xf.M =X>XwXwX8XdX8X8XdXdX<XdXdX2X8X8XdXdXdXdXdXdXdXdXdXdXdXdXdXdXdX",
"dXdXdXdXdXdXdXdXdXdXdXdXdXdXdXdX8X8X,XM.r r 3 4 i t 7.#XwXgX<Xs.q.&X>XdXdXdXjXdX8X4XdXdXdXdXdX8XdXdXdXdXdXdXdXdXdXdXdXdXdXdXdXdX",
"dXdXdXdXdXdXdXdXdXdXdXdXdXdXdXdXdX:XwXQ.r.=.w =.k ;.e.#XwX<X<Xi.0.1XdX<X0XdX<XdXdXwXwXwXgXgXgX4XdXdXdXdXdXdXdXdXdXdXdXdXdXdXdXdX",
"dXdXdXdXdXdXdXdXdXdXdXdXdXdXdXwXwX<XwX0X<XF.M.M.Z.Z.p.L.2X&X<X4.i.:XdXdXdXdXdXwX<XjXwXdXdXgXdXgXdXdXdXdXdXdXdXdXdXdXdXdXdXdXdXdX",
"dXdXdXdXdXdXdXdXdXdXdXdXdXdXdXdXwXwXwX:X%XoX). X!.P.!.J.@X<X<Xn k.:XdXjXdXdXwXwXwXwXdXdXdXdXdXdXdXdXdXdXdXdXdXdXdXdXdXdXdXdXdXdX",
"dXdXdXdXdXdXdXdXdXdXdXdXdXdXdXdXdXdXwXwXwX<XjX<XjX8XOX%XW.=X=Xx J.:XdX4XdXdXwXdXdXdXdXdXdXdXdXdXdXdXdXdXdXdXdXdXdXdXdXdXdXdXdXdX",
"dXdXdXdXdXdXdXdXdXdXdXdXdXdXdXdXwXwXwXwXwXwXdXdXdXdXdX%X@X_.L.x  XjXgXdXdXwXdXdXdXdXdXdXdXdXdXdXdXdXdXdXdXdXdXdXdXdXdXdXdXdXdXdX",
"dXdXdXdXdXdXdXdXdXdXdXdXdXdXdXdXwXwXwXwXwXdXdXdX8XjXdX<X=XS.X.X.%XgX<XdXdX8XdXdXdXdXdXdXdXdXdXdXdXdXdXdXdXdXdXdXdXdXdXdXdXdXdXdX",
"dXdXdXdXdXdXdXdXdXdXdXdXdXdXdXdXwXwXwXwXgXdXdXgXdX8XjXwX<X).0 u.>XdXdXdXdXdXdXwXdXdXdXdXdXdXdXdXdXdXdXdXdXdXdXdXdXdXdXdXdXdXdXdX",
"dXdXdXdXdXdXdXdXdXdXdXdXdXdXdXdXwXwXwXwXdXgXdXdX8XdXdX<X=X`.b k.%XdXdXdXdXdXdXjXdXdXdXdXdXdXdXdXdXdXdXdXdXdXdXdXdXdXdXdXdXdXdXdX",
"dXdXdXdXdXdXdXdXdXdXdXdXdXdXdXdX0X0XdXdXdXdXgXgXdXdX8XwX=X`.X.S.:XdXdXdXdXdXdXdXdXdXdXdXdXdXdXdXdXdXdXdXdXdXdXdXdXdXdXdXdXdXdXdX",
"dXdXdXdXdXdXdXdXdXdXdXdXdXdXdXdXwX0XwX8XdXdXdXgXdX4X4XwX<X@Xb L.<XdXjXgXdX0XwXdXdXdXdXdXdXdXdXdXdXdXdXdXdXdXdXdXdXdXdXdXdXdXdXdX",
"dXdXdXdXdXdXdXdXdXdXdXdXdXdXdXdXwX0XdXdXdXdXdXdXdX4XdXjX<X`.x T.wXdXdXdXdXdXdXdXdXdXdXdXdXdXdXdXdXdXdXdXdXdXdXdXdXdXdXdXdXdXdXdX",
"dXdXdXdXdXdXdXdXdXdXdXdXdXdXdXdXdX8XdXdXdXdXgXdX4XgXgXgXwX}.g K.wXdXdXdXdXdXdXdXdXdXdXdXdXdXdXdXdXdXdXdXdXdXdXdXdXdXdXdXdXdXdXdX",
"dXdXdXdXdXdXdXdXdXdXdXdXdXdXdXdXdX8XdXdXdXdXdXgXdXdXdX<X<X%X0.W.wXdXdXdXdXdXdXdXdXdXdXdXdXdXdXdXdXdXdXdXdXdXdXdXdXdXdXdXdXdXdXdX",
"dXdXdXdXdXdXdXdXdXdXdXdXdXdXdXdXdX8XdXdXdXgXgXdX8X4XdXdX<X<XwX<XwXwXdXdXdXdXdXdXdXdXdXdXdXdXdXdXdXdXdXdXdXdXdXdXdXdXdXdXdXdXdXdX",
"dXdXdXdXdXdXdXdXdXdXdXdXdXdXdXdXdXdXdXdXwXwXwXdXdXdX8XjXdX:XwX<XwXdXdXdXdXdXdXdXdXdXdXdXdXdXdXdXdXdXdXdXdXdXdXdXdXdXdXdXdXdXdXdX",
"dXdXdXdXdXdXdXdXdXdXdXdXdXdXdXdX8XdXdXwX<XwXwX<X0XdXdXdXdXdX<XdXdXdXdXdXdXdXdXdXdXdXdXdXdXdXdXdXdXdXdXdXdXdXdXdXdXdXdXdXdXdXdXdX",
"dXdXdXdXdXdXdXdXdXdXdXdXdXdXdXdXdXdXdXwXwXwXwXwXwX8XdX8XjXdXjXwXdXdXdXdXdXdXdXdXdXdXdXdXdXdXdXdXdXdXdXdXdXdXdXdXdXdXdXdXdXdXdXdX",
"dXdXdXdXdXdXdXdXdXdXdXdXdXdXdXdXdXdXdXdXwX<XwX<XwXwX8X7XdXjXdXdXdXdXdXdXdXdXdXdXdXdXdXdXdXdXdXdXdXdXdXdXdXdXdXdXdXdXdXdXdXdXdXdX"
};
