/* XPM */
static char *e16bf31195a54548ad6a65d672d28be2YDoWDb2ryDIaM7L1[] = {
/* columns rows colors chars-per-pixel */
"64 64 234 2 ",
"   c #020202",
".  c #0C0001",
"X  c #050609",
"o  c #0A040A",
"O  c #0B0B0B",
"+  c #070A07",
"@  c #140201",
"#  c #160A05",
"$  c #0D0C12",
"%  c #140C13",
"&  c #141214",
"*  c #1C1718",
"=  c #18120A",
"-  c #250A03",
";  c #3C0100",
":  c #261A1A",
">  c #2E160F",
",  c #2A221E",
"<  c #191921",
"1  c #2A1E20",
"2  c #2A2728",
"3  c #3A322A",
"4  c #3B393A",
"5  c #342C2B",
"6  c #53190C",
"7  c #42241E",
"8  c #483B37",
"9  c #513228",
"0  c #693628",
"q  c #50433B",
"w  c #69483D",
"e  c #764437",
"r  c #463940",
"t  c #494848",
"y  c #5A4B44",
"u  c #5A524A",
"i  c #5D5B5A",
"p  c #684B42",
"a  c #6A544B",
"s  c #79554A",
"d  c #765C53",
"f  c #7C4C40",
"g  c #786359",
"h  c #696156",
"j  c #5B5F60",
"k  c #615F60",
"l  c #6A6869",
"z  c #776966",
"x  c #7A7775",
"c  c #76716B",
"v  c #82473A",
"b  c #8A5748",
"n  c #93584C",
"m  c #856459",
"M  c #986558",
"N  c #93604E",
"B  c #A56557",
"V  c #866D65",
"C  c #87746B",
"Z  c #987567",
"A  c #867A76",
"S  c #986E60",
"D  c #A97467",
"F  c #B9776A",
"G  c #AA7C74",
"H  c #B57D70",
"J  c #B06C61",
"K  c #A55E4C",
"L  c #CC7E72",
"P  c #84827E",
"I  c #998778",
"U  c #AA877B",
"Y  c #BC867A",
"T  c #BB8A7D",
"R  c #B4887B",
"E  c #C6877A",
"W  c #D68577",
"Q  c #898785",
"!  c #998C88",
"~  c #989188",
"^  c #959392",
"/  c #9C9997",
"(  c #918F90",
")  c #AA8E84",
"_  c #BA8C82",
"`  c #A6978A",
"'  c #B39283",
"]  c #BC9384",
"[  c #B49689",
"{  c #BB998D",
"}  c #B7998A",
"|  c #A39D9C",
" . c #A79994",
".. c #BD9D91",
"X. c #B59D90",
"o. c #ABA29B",
"O. c #A8A399",
"+. c #BDA295",
"@. c #B8A69A",
"#. c #A5A3A2",
"$. c #ABA4A3",
"%. c #ACAAA5",
"&. c #ACACAD",
"*. c #B4ACA4",
"=. c #B2ADAC",
"-. c #B8AAA7",
";. c #B3B1AD",
":. c #BBB2AA",
">. c #AEAFB1",
",. c #B5B3B3",
"<. c #BBB5B5",
"1. c #BDBCB6",
"2. c #BDBBBA",
"3. c #B3BDB2",
"4. c #BDAEB1",
"5. c #C28E83",
"6. c #CF8C83",
"7. c #C19585",
"8. c #CA9385",
"9. c #C49986",
"0. c #C49B8A",
"q. c #CB9B8C",
"w. c #CA9689",
"e. c #D69888",
"r. c #C69C93",
"t. c #C4A293",
"y. c #CCAB9B",
"u. c #CBA597",
"i. c #D3AA99",
"p. c #DBAB9C",
"a. c #D6A695",
"s. c #DCB69E",
"d. c #D2A18E",
"f. c #E4AB9C",
"g. c #E2B49C",
"h. c #F6AC9F",
"j. c #C6ADA3",
"k. c #D8ACA2",
"l. c #C5B3A3",
"z. c #CBB5AB",
"x. c #CDBBAE",
"c. c #C5B6AC",
"v. c #DDB2A2",
"b. c #DEBAA2",
"n. c #D5B8AA",
"m. c #C4BCB5",
"M. c #CCBAB2",
"N. c #C3BDBB",
"B. c #C7BAB8",
"V. c #D2BDB2",
"C. c #DFBFB4",
"Z. c #E3BCA6",
"A. c #E6BEAB",
"S. c #E5B5A5",
"D. c #F6B7A7",
"F. c #EFBEB4",
"G. c #EDABA0",
"H. c #E59D8F",
"J. c #BEC0B5",
"K. c #C5C2BC",
"L. c #CAC3BC",
"P. c #CCCABD",
"I. c #C8C1B4",
"U. c #D5C5BA",
"Y. c #E4C4BC",
"T. c #EAC8BA",
"R. c #F3C8B8",
"E. c #EECFB8",
"W. c #CBBFC1",
"Q. c #C5C3C2",
"!. c #CBC6C5",
"~. c #CDCBC3",
"^. c #CECAC9",
"/. c #C6C8C7",
"(. c #D4C5C4",
"). c #D9C7C5",
"_. c #D3CCC5",
"`. c #DACCC5",
"'. c #D5C6CD",
"]. c #D3CDCD",
"[. c #DBCBCC",
"{. c #DAC6CC",
"}. c #CDD2CB",
"|. c #C9D0C9",
" X c #D4D1CD",
".X c #DCD2CD",
"XX c #D9D4C8",
"oX c #CDCDD4",
"OX c #D4CDD0",
"+X c #D9CDD1",
"@X c #CBD3D2",
"#X c #C7D1D0",
"$X c #D6D2D1",
"%X c #DAD4D3",
"&X c #DCDAD6",
"*X c #DDDCDB",
"=X c #D8D8D8",
"-X c #E5CBC4",
";X c #FBCDC2",
":X c #E2D2CC",
">X c #EBD0C7",
",X c #FBD6C7",
"<X c #E2DAD4",
"1X c #E3DDDC",
"2X c #E5D9D6",
"3X c #DBE2DD",
"4X c #E6E1DC",
"5X c #E9E3DD",
"6X c #FFEADB",
"7X c #FAE3D9",
"8X c #F7E0CE",
"9X c #DDDDE1",
"0X c #E3DEE4",
"qX c #EADFE5",
"wX c #DDE1E4",
"eX c #E5E2E2",
"rX c #EAE4E3",
"tX c #ECE9E6",
"yX c #E4E5E9",
"uX c #E9E6EA",
"iX c #E6E9EC",
"pX c #ECEBEB",
"aX c #F1EBE5",
"sX c #F0EDEB",
"dX c #FAE8E2",
"fX c #F2F1ED",
"gX c #FEF3EB",
"hX c #FFF1E4",
"jX c #ECEEF1",
"kX c #F1EFF2",
"lX c #F3F2F3",
"zX c #FBFBFB",
"xX c #FFFBF4",
"cX c #EFF0F2",
/* pixels */
"wXyXiXiXpXjXiXtXwX3X3X1X1XtXrX].{.(.[.<X'..X<XL.}..X.X4X9X'.qX+X9X+X%X%X%X%X%XOXOX.X$XOX%X%XOX$X].'.^.^.OX$X&X&X.XXX-.U U R t.R.",
"9XyXiXjXpXjXiX5XtXwXeX3X1XtXrX X%X'.+X%X_._.5XfX<X5X*X4X%XW.0X+X%X%X%X%X+X+X%X%X].OX$X%X$X%X%X%X[.].^.^.}.$X$X%XXX).l.) } } p.R.",
"wXiXjXiXpXjXiXtXiXeX4X3X1XaXtX X!.*X.X_.1XaX_.O./ *.;.!.+X9XqX9X%X%X%X%XOX%X$XOX%X%X%X%X%X%X%X%X].].].^.^. X X X_.`.j.} } 9.i.R.",
"wXwXiXjXpXfXiXwXtX3XeXeX4XtXtX XQ.%X X XtX_.x 3 u c x Q 4.+XqX+X+X%X%X%X%X%X%X%X X%XOX$XOX%X%X%X%X].]. X X X].]._.`.z.+.t.9.9.T.",
"wXiXjXjXjXjXpXtXeXeXeXeX4XtXtX X=X/.@XtXJ.i * 5 u P A l A $.W.+X+X%X+X X%X%X$X%X%X].].].].$XOX$X%X%X].$X$X X X_._.`.m.y.y.{ T s.",
"wXiXjXiXjXjXpXwXwXeXeXeX4XtXtX X=X}.*X*X^ , = q y o.:.! c A 4.qX].$X$X%XOX%X%XOXOX].].].].].$X%X2X%X%X$X$X$X X]._.XXx.n.n.0.T i.",
"wXiXjXjXjXjXjXiX3XeXtXeX1XeXeX X|.=X3XJ.x t 8 q q *.<XU. .g ! W.[.$XOX$X$X%X$X%X$XOX].].].OX$X%X+X%X$X$X$X$X X X`.`.x.n.n.t.9.s.",
"wXiXjXjXjXjXiXiX4X3XeXeX1XtX4X X}.}.@XJ.c q u u g m.7X5X$.a z B.].$X$XOX$XOX%X$X%X$X].].].%X%X%X+X+X].$X$X$X X^..X`.z.y.n.t.9.Z.",
"wXiXiXiXiXfXiXtXpX@XwX3X4X1XrX&X$X^.}.Q g g g p A Y.gXdX`.) C ~ [.^.].$X%X%X].OX%X].].].%X%X%X%X].].].].$X}.]._.%XP.x.y.y.u.0.i.",
"wXwXjXjXjXjXpXyXuX=XtX=X5XeXtX X'.qX*.x c h V g U Y.7X7X7X-Xl.I..X].].$X%X$X].OX%X].].].%X%X%X+X'.].].$X$X X X X[.U.V.@.t.y.0.s.",
"wXiXiXjXjXfXpXeXeXeXtX$XrXrXtX XW.:Xz y d w s m R E.8X,X6XhX6X8X.X].^.].%X].OX$X].].].].%X%X%X].].].$X$X$X$X X X_.(.V.{ { i.u.s.",
"wXwXjXjXcXcXiXyX3XuXtX=XtX1XtX.X-XW.g V Z m s S _ A.,XE.E.,X8XhX[.].^.].$X].].%X].].].$X*X%X%X].'.].$X$X$X$X X X_.`.V.[ ' u.u.v.",
"wXwXiXiXfXcXjXtXeXiXeXeXaX&XaX.X:X+.V U U N e S T a.Z.Z.b.b.E.6X.X].^.].].].].$X].].].%X*X%XOX].]. X$X%X$X$X X.X].`.V.` ' t.d.s.",
"3XwXiXiXiXfXjXtXfXuXtXuXsX1XfX-.dXk._ G R U S E q.d.f.g.g.s.Z.E.`.].].].$X].].OX].].].$X%X*X$X].].[.$X$X=X$X$X X.X`.V.[ R { 0.v.",
"wXwXiXwXiXiXiXyXpXeXeXeX1XrXfXc _ k.R M J M J W e.d.f.g.g.g.T.b.`.^.^.].$X].].].].].].$X%X<X+X].].].$X$X$X$X$X X_.U.x.} ' ] 0.Z.",
"wXiXiXwXeXeXeX5XeX3X<X%X<XaXaX8 5 u.r.D i.F Y E E e.D.h.g.E.E.E.`.^.^.OX%X].].].OX].].$X*X%X%XOX'.].$X$X$X%X].`._.L.z.X.' ] 9.A.",
"iXwXyX0X9X0XtXqX5X5X4X5X5X2XgXp @ Z >Xk.j.S H w.B v n v p.a.U.,X`.].].].].OX].].$X].].%X%X%X%X+X+XOXoX$X$XOX[.[.~.L.x.X.T 8.0.Y.",
"wXwXuXyX9X0XtX5X<XXXz.` :.,XxX@.C 9 a ) { Z _ _ H 6 ; ; 6 0.,Xy.L.!.].].].].].].OX].].$X%X%XOX].+X+X@X@X$X+X+X{.P.L.x...5.8.9.g.",
"wXyXiXiX1X4XaX5XL.P 9 3 A o.j.@.B.j.g w I g V ;Xf.n b v - b U s B.!.OX$X].].].$X X].].OX%X$X$X].+X+X@X@XOX+X:X{._.P.x.0.E 8.9.s.",
"wXiXjXjX1X1XaX5XO. .:.`.:X~ z y z j.A 8 p a G gX7X5.M 0 0 N S g (.].%X%X].].].OXOX].].]. X+X$X[.+X=X@X@XOX+X:X{.P.P.I.0.7.8.9.s.",
"0XyXjXjXeXrXtX5XL.<X<X).-.! -.8 . , , , 5 3 g E.6Xp.U D w.S.v.-X:X%X%XOXOX].].].].].].].OX$X XOX+X+X@X@X=X%X:X{.~.P.V.t.7.8.] s.",
"iXiXkXkXyXrXaX4X.X].P..X(.2XgX8 = , , = @ # h E.' 0.d.a.D d.a.F.:X$X].].^.].].].].].].^.].].].].'.+X@X@XoX+X{.[._.P.x...5.8.7.s.",
"uXiXjXlXuXsXaX<XL.L..X<XL.'.2Xr :   =   + + I :...{ w._ H F.F.-X`.].^.].!.].^.].].].!.^.].].$X'.'.'.oX#XOX'.[.)._.P.x.{ T 8.9.b.",
"jXyXpXfXpXfXsX*X| o.:.Q ~ tX1Xr o % + , J.O.I I.y.[ 0.D F.F.R.Y.).].%XOX].!.!.^.].].!.].].].].].'.+X#X#XOXOX{.{.~.P.x.{ 5.8.9.b.",
"0XjXkXuXuXsXtX&XK.}.~.L.!.0X1X5 . %   x hXaXl.l.s.I T T 0 u.Y.F.).^.!.!.!.!.].OX].^.!.'.].%X$X].'.'.#X#X^.'.{.).P.XXx.t.7.E 0.s.",
"0XjXkXuXpXfXtX&X~.4X.X].%XqXqX4   % . h :.P.l.I T 6XE.E e b -X-X(.^.].!.!.].].%X].].^.!.OX$X%X].'.OX#X#X X[.{.).~.P.x.+.T E 0.s.",
"0XuXjXqXjXfX4X=X$X4X&X$X%XqX0X5   . 5 -.` C T u.R i.E.E i.U.>XU.].^.].^.^.].].%X].!.!.!.].%X%X[.+X'.@X@X$X].{.{.P.P.x.{ T Y 9.b.",
"iXjXuXuXjXfX5X=X=X3X=X$X9X0X9X2 % @ z gX@.w m Z.E 0 d.N U U.c.XX].].].].].].OXOX!.].!.^.].=X*X+X'.OX@X@X$XOX:X{.~.P.l.} Y Y 0.b.",
"uXuXjXkXkXkX4X$X=X3X=X=X*XyX9X2 @ @ V U.k.7.b Y B 6 e v ..U.3XP.].].+XOX].].$X$X!.^.!.!.OX%X&X+X'.'.#X@X@X[.{.{.~.P.l.] Y Y 9.Z.",
"uXjXkXkXkXqX3X$X.X&X=X3X9XyX9X2 . @ V t.d.d.K W R.H.B N y.I.P.|.^.].$X$XOX].].].!.^.!.!.].%X*X+X'.'.#X@XOX[.[.{.~.P.c.[ T Y 9.s.",
"qXuXkXkXuX1X%X X$X=X X=X9X9XoX< # > Z Y.q.D K W W W W f.Y.XXJ.3X^. X$X%X].].].].!.^.!.!.].%X%X+X'.'.#X@X$X+X:X`._.P.c.} T E 9.b.",
"qXuXkXkXuX%X X X$X=X$X=X9X9XoX* > - 9 S.f.e.W F h.v 0 U.U.4X}.|.!. X$X%X$X].].].'.].!.].OX%X*XOX'.OX@X@X%X+X+X.X_._.z.{ T Y 9.g.",
"yXpXcXpXtXtX*X}.&X^.eX=X/.jXQ % : @ w k.F L h.D.R.q U.P.P.XX~.P.Q.].%X%X].!.^.].!.^.].].$X%X%X%X'.].OX@X@X%X.X.XXX.XV.0.R Y 8.f.",
"yXpXfXtXtX5X*XXX X~.&X}./.=Xl o   @ m ;XG.F J 5.i.> :.}.}.}.P._.!.^.$X%X].].!.].!.!.'.].%X%X%X%XOXOXOX$X$X X$X.X`.:XV.{ R Y 8.f.",
"yXuXsXpXtXtX<XXX X}.$X^.^.Q.t o . # 9 5.G.6.E ;XU = / 3X X~.I._.~.].$X$XOX^.].^.].^.].].%X%X%X%X].].OX$X X$X&XXX.X:Xn.{ R T w.f.",
"uXuXpXsXpX3X3X}.XX}.^.!.Q.>.2 X     @ p 5.r.5.r.a . Q 3X}.P.I._.(.].$X%XOX].].].].].].%X=X*X%X%XOX].$X$X$X%X X.X:X:Xn.{ ' 5.q.f.",
"uXuXpXsXpX4X&X}.P.|.J.2.<.( $   +   . > b _ G e -   x 3X/.}.~.(.].].].%X$X].].]. X].OX$X*X%X%X%X].$X X$X$X$X%X.X:X:XM.X.] ] q.v.",
"uXuXtXsXtX4X X X~.P.J.,.&.x X X +   . . - f g 5 .   l 3XQ. X}.~.].+X X%X%X].$X].+X X%X%X%X%X%X$X$X].$X$X$X$X%X%X:X-XM.X.{ 0.q.p.",
"uXuXtXjXsX3XXX}.}.K.2.;.^ l X       + . @ @ # . = X j yX/. X~.P. X].%XOX%X].$X].$X].$X+X%X%XOX]. X X$X$X$X&X%X%X+X:XM.....r.r.y.",
"pXyXtXpXpX3X X X~.1.,.%.P k         +   = . . @ & X t wX^. X!.]. X.X XOX%X%X%XOX$XOX].%X%X%X].].OX$X$X$X$X$X%X%X[.{.M.@.+.t.t.u.",
"uXuXtXpXtXtX3X~.J.P.>.| Q 4   X X         +     $ $ 2 wXoX9X_.`.].].].].$X].OX].].OX%X&X%X%X+X].]. X%X%X%X$XOXOX`.[.B.X.X.....j.",
"yXuXpXpXpXtX&X}.J.|.>.~ x 4     X X             X $ < oXoX$XP._.^.].].].OX]. X].OX].%X%X*X*X%X]. X XOX].^.^.'.W._.(.j. . .X.X.y.",
"yXuXpXsXpXtX&X_.J./.%.P c 4 X                   X $ $ 2.=X'.XXP.].].].].].].].+X].^.].%X&X%X].!.Q.K.N.1.<.<.4.B.m.-. .` ` ) ` @.",
"yXpXfXpXpX5X3XXXP.K.#.P l 4 $ X X               X $ X / OXQ.P.I.N.N.N.2.N.W.Q.Q.Q.W.K.'.$X'.Q.<.;.=.$.$.#.#.$.&.|  .! !  .` ` @.",
"uXjXfXpXtX5X3X}.~.K.%.Q l 4 & o .           +   X $ X l I.*.*.O./ | | | $.&.=.<.<.,.<.!.].!.m.=.=.%.$.#.#.$.&.-.*.| ` o.-.o.X.@.",
"uXpXpXuXtX3X&XXX/.J.#.P i 4 *   . . .     +     X % X r O.O.` I ~ ( / | $.=.=.<.<.<.N.!.OX!.N.<.K.K.N.2.2.W.W.W.W.L.N.L.P.I.:.I.",
"uXpXpXtX4X3X&XXXJ.K.&.x k k r X . .       + +   $ % o : O.:.@.O.$.*.=.<.B.Q.!.!.!.!.!.].OX+X].].$X X%X&X%X2X2X2X2X2X<X:X<XXXXXXX",
"tXjXtXeX3X&X&X XJ.^.,.P c ( l % o . +           X o o @ ^ _.c.I.!._.^.OXOXOXOX%X%X%X$X%X*X1X0XeX*X*X4X5XqX0X0X0X2XrX5X4X5X4X4X6X",
"uXyXpXpX$X~. X_.K.K.;.( ( | / X                   &     x *X~.%X].OX+X%X2X1X1X1X1X1X1X1X1X1XqX1X5X5X0X5XeXrXrXrXqXrXrX5X5X5X4X5X",
"uXyXpXtX%X X X_.L.L.<./ / >.#.$                 X &   X 4 $X*X=X%X*X<X1X0X1X1X1XqX1XqXqXrXrXrXqXeXeX1XqX1XeXrXrXrXrXrX5XqXqXqXeX",
"tXwXuXiX&X%X%X_.L.P.N.#.>.J.>.&                   &   X X Q.lX*XeX1X5XeXeXqX1XqXeXrXqXrXrXrXrXuXeXqXeX5X1XeXqX5XqXqX5XeXqXeX1X4X",
"yX4XiXeX1X4X<X_.N.L.N.$.>.J.>.$                   O   +   >.lXeXrXrXrXrXrXeXeXqXrXrXaXrXrXrXrXuXrXrXrXeXqXeX4XqX5XeXeXqX5XeX1XeX",
"iXyXtXtX3XtX1X].L.L.N.=.2.Q.&.X                   O X   X ( jXpXrXrXtXuXrXrXuXuXaXtXsXuXtXtXtXtXaXrXrXrXqXrXrXrXeX5X1XrX1XeX1X1X",
"yXyXiXtX5XtX5XXXP.~.K.,.Q.#X&.X                 O O O & + x lXlXsXsXtXtXuXaXdXsXtXtXuXaXtXtXtXtXtXrXrXrXrXeXrXrXqXqXrXeXqX1X1XeX",
"eXeXpXiXeXtX5X_.!._.Q.1.^.oX>.X                 + O , 4   x zXpXsXaXaXrXaXtXaXaXrXaXrXaXeXrXeX5XqXeXeXrXqXrXrXeX5XqX0X1X1X1XqX1X",
"wXyXpXtX4XeX5X_.P.!.Q.2./.@X,.X                   X 5 l   P zX3XtXaXrXrXeXrXeXrX1X1XqX2X4X4X4X<XqX1X1X1X1X1XqX5XeX4X5X0X5XqX5X1X",
"eXiXpXeXrXeX<X`.L._.N.K.^.*X>.X                 +   $ + X ^ zX3XqX1X5X5X4X4X4X1X<X4X4X&X4X<X4X<X1X<X1X1X0X2X1X1X1X1X1X1X1X1X1X1X",
"wXyXiXeXeX4X%X_.N._.K.Q./.*X>.                  +   O X X / zX5X5XrX5X5X5X4X4X4X4X4X4X4X4X4X4X<X<X1X1X1X1X1X1X1X1X1X0X1X1X1X1XqX",
"4XyXyX4X4X4X<X_.B.~.N.K.^.*X>.X                     X     %.zX5X5X5X5X5X5X4X4X1X<X4X4X<X4X4X4X4X1X0X1XqX0X1X1X1X1X1X1X1X1X1X1X1X",
"wXyXyXwX4X4X%X_.L.^.N.~.^.wX>.                      X   X 3.lXiXeX5X5X1X4X4X4X5X4X5X5X5X4X4X4X4X1X0XeX1X0X1X1X1XqX1XqX1X1XqX1XeX",
"wXyXeXeXeX4X%X_.N.~.Q.~.#XwX>.                  X       + ~.lXpX5X5X4X5X<X4X4X5X5X5X5X4X4X4X5X1X5XqX4XeXqX1X1X1X0X1X1X1X1X0X1X1X",
"eXyXiXtX4X4X&X_.L._.Q.~.^.0X>.                          & 3XcXtX5X5X5X4X4X4X4X5X5X5X4X5X4X4X5X5X5XeX0X5X1XqX1X1X1X1X1X0X1X1X1X1X",
"wXiXeX3XeX1X%X_.K._.L.^.].9X&.                    +     * iXfXtX5X5X4X<X<X4X4X5X4X<X4X5X4X4X4X5X1XqXeX1X1X1X2X9X2X2X2X9X1X*X1X1X",
"3XwXeX5X4X1X.X_.L._.!.].@X9X&.                  X X     < fXjXtX5X5X4X4X4X4X4X5X4X4X4X2X4X4X5X1X5XrX1XeX0X1X9X2X*X*X*X2X*X2X1X<X"
};
