/* XPM */
static char *_ce6376adf31462eec852e2c7c417e38mVycGF5Nw1imQKuW[] = {
/* columns rows colors chars-per-pixel */
"64 64 256 2 ",
"   c #0C0302",
".  c #0C0905",
"X  c #130301",
"o  c #1C0300",
"O  c #140B02",
"+  c #1B0B02",
"@  c #140D0C",
"#  c #1B0D0B",
"$  c #14120C",
"%  c #1A1308",
"&  c #160E12",
"*  c #141312",
"=  c #1C1814",
"-  c #0B1103",
";  c #230400",
":  c #2B0400",
">  c #240C02",
",  c #2C0C01",
"<  c #240D08",
"1  c #3B0B00",
"2  c #350700",
"3  c #241403",
"4  c #2B1403",
"5  c #24140A",
"6  c #2B1A0B",
"7  c #291809",
"8  c #331401",
"9  c #3B1401",
"0  c #341A03",
"q  c #3C1A03",
"w  c #331C0B",
"e  c #3C1C0B",
"r  c #36150A",
"t  c #241C13",
"y  c #291913",
"u  c #361D13",
"i  c #3B230A",
"p  c #2A2314",
"a  c #392517",
"s  c #470801",
"d  c #550401",
"f  c #431301",
"g  c #431C02",
"h  c #4B1B03",
"j  c #471A08",
"k  c #551A04",
"l  c #471E12",
"z  c #670702",
"x  c #750A07",
"c  c #691405",
"v  c #771605",
"b  c #4B2403",
"n  c #43230B",
"m  c #4B240B",
"M  c #4C2B0C",
"N  c #462504",
"B  c #532C0C",
"V  c #572807",
"C  c #59330B",
"Z  c #472815",
"A  c #552A16",
"S  c #4D3419",
"D  c #5B341B",
"F  c #583617",
"G  c #4F3509",
"H  c #63270A",
"J  c #762507",
"K  c #67360A",
"L  c #633B14",
"P  c #673718",
"I  c #793819",
"U  c #712A13",
"Y  c #593923",
"T  c #4E3227",
"R  c #673B26",
"E  c #783B25",
"W  c #792C22",
"Q  c #5C4219",
"!  c #6B431B",
"~  c #764519",
"^  c #704C13",
"/  c #5C4B27",
"(  c #694627",
")  c #784726",
"_  c #67582A",
"`  c #78552A",
"'  c #795435",
"]  c #6E4733",
"[  c #756731",
"{  c #78671C",
"}  c #7D7451",
"|  c #52786D",
" . c #5D6454",
".. c #891604",
"X. c #991708",
"o. c #900E0A",
"O. c #A80B05",
"+. c #B70C00",
"@. c #A61606",
"#. c #BC1403",
"$. c #B81808",
"%. c #AC1815",
"&. c #842609",
"*. c #962808",
"=. c #863516",
"-. c #923211",
";. c #A92605",
":. c #A63517",
">. c #B22F0C",
",. c #8C3C26",
"<. c #B03D23",
"1. c #C31503",
"2. c #CB1A05",
"3. c #C81908",
"4. c #D41C07",
"5. c #C7150D",
"6. c #C92409",
"7. c #D6260A",
"8. c #D62614",
"9. c #C92D0E",
"0. c #E72707",
"q. c #F62809",
"w. c #EE3112",
"e. c #DD2C17",
"r. c #87451B",
"t. c #914E14",
"y. c #AD4D16",
"u. c #AE6418",
"i. c #864928",
"p. c #9A492A",
"a. c #88542C",
"s. c #95542E",
"d. c #884B34",
"f. c #895637",
"g. c #935533",
"h. c #945C3C",
"j. c #985A37",
"k. c #974B35",
"l. c #A74527",
"z. c #AB4A35",
"x. c #A85839",
"c. c #AE562D",
"v. c #896738",
"b. c #9A633C",
"n. c #8C712F",
"m. c #B56729",
"M. c #A8663C",
"N. c #B96A3A",
"B. c #B67139",
"V. c #AD6E2B",
"C. c #99721D",
"Z. c #C96E1E",
"A. c #C6753A",
"S. c #C57132",
"D. c #CE4F1C",
"F. c #865945",
"G. c #995A43",
"H. c #A95B46",
"J. c #B25D4C",
"K. c #8D6343",
"L. c #9D6443",
"P. c #976549",
"I. c #967050",
"U. c #A36443",
"Y. c #AB6A44",
"T. c #AB6D4C",
"R. c #A66947",
"E. c #B46C44",
"W. c #B76949",
"Q. c #AC714D",
"!. c #A77146",
"~. c #B3734C",
"^. c #BB744D",
"/. c #B97747",
"(. c #A86B53",
"). c #BA6453",
"_. c #B66755",
"`. c #AB7355",
"'. c #B57453",
"]. c #BC7B55",
"[. c #BC7C5C",
"{. c #B77756",
"}. c #B87C66",
"|. c #B76F60",
" X c #C67748",
".X c #C37C52",
"XX c #C77B58",
"oX c #D47B53",
"OX c #C76F51",
"+X c #D5724C",
"@X c #748B73",
"#X c #A58832",
"$X c #D59419",
"%X c #D0872D",
"&X c #E9A82E",
"*X c #E39C2F",
"=X c #96874E",
"-X c #AF8857",
";X c #90926D",
":X c #B98764",
">X c #B09566",
",X c #B3A378",
"<X c #9DA17C",
"1X c #CB844A",
"2X c #D4874B",
"3X c #CC8353",
"4X c #C4825B",
"5X c #CA855A",
"6X c #CC8A5C",
"7X c #C68455",
"8X c #D48C5B",
"9X c #D68857",
"0X c #DA9259",
"qX c #D19450",
"wX c #E39453",
"eX c #E9975A",
"rX c #F39C5C",
"tX c #EA8C57",
"yX c #DCAB4F",
"uX c #FBB958",
"iX c #F1AC51",
"pX c #CD8B62",
"aX c #C58765",
"sX c #D58B64",
"dX c #D99367",
"fX c #D19371",
"gX c #E89866",
"hX c #F49D64",
"jX c #E79D75",
"kX c #EC926D",
"lX c #CEA875",
"zX c #EBA76A",
"xX c #F4A364",
"cX c #F8A769",
"vX c #FAB569",
"bX c #E8A876",
"nX c #FBAA74",
"mX c #E6B679",
"MX c #FAB778",
"NX c #E6B56A",
"BX c #FBC54A",
"VX c #F8C858",
"CX c #FBCA68",
"ZX c #FCD668",
"AX c #F9D478",
"SX c #F0C671",
"DX c #FEE47B",
"FX c #638B80",
"GX c #B5AA8A",
"HX c #929E85",
"JX c #D2B587",
"KX c #E4BA85",
"LX c #F7BB81",
"PX c #FCC687",
"IX c #F1CA85",
"UX c #FEE487",
/* pixels */
"| | FXFXFXFXHXHXGXGXGXJX,X,X,X-Xb.a.~ a.C.s.~ a.a.v.L V V b ~ ` ~ ! ! L ! ( ( ' M ! ( V ^ ^ ~ t.n.v.b.lXKXbXeXiXiXiX&XrXvXMXKXIX",
"| | | | @XFXHXHXGXJXJX,X>X=Xv._ ` K ` a.V K i.) ` ` L L P V C K ^ V K L B N M / ( ( F G K L L a.[ Q ! v.:XmXmXiXiXiXiXrXvXLXKXJX",
"| | | | @X;X;XGXGXlX>X`.b.) ! ( P P I ! K L L ` h C a.' ! ! L F K K ! ! C b N b ( ` ` ` ` K.F ) ! M S B V g.6XxXrXiXrXvXnXLXKXKX",
"| |  .| @X;X<X>X;XL.' E ) d.) V P ( ` ! F B b ` ) m P P P P F M L ( ` f.! K b 9 ! ( ( F F ' Q / n n m l R K ~ -XvXvXvXcXMXKXKXJX",
"|  .@X} @X;X=X[ ` ` ! I ) E R P P a.a.! C N q B D D l A D A j j N F D ) L K b h g b b N n Z Z a i , e A A f H !.7XMXcXvXMXbXKXJX",
"@X@X@X@X@X[ [ ( L ~ ) ) ) P R P.` ! ` _ C C B q k D A j A T Z g A B B C L ( ) ~ V M b M q 6 i Z a q q m A h B a.!.mXMXvXMXNXKXJX",
"@X<X;X_ Q ( ( C q b q N Q Q i S D C C ! G C N F D D E ' W l e l Z i i q M R ( ) F B M M 8 4 ; 4 Z S A D m C ( ! b.NXPXMXMXmXIXKX",
",X,X=X_ _ ( D M b B n 0 3 0 7 3 q 0 S F i N B S A g Z R R A r Z w ; 0 8 q n Z D D Z D Z Z ( T i M ` F B F ( R g C !.bXMXSXIXKXIX",
"JX-X) ( ) R ] A R Y l 0 3 3 p p i 4 Z e S A j j i 0 i M S F j r 4 4 < u Z a a Z a T Z q n ( R g N Q ! F C M F g N b s.NXmXSXKXKX",
"-X( L ! P P h D Y A a w 5 O % 5 % + 4 i Y A Z e i w i i 0 T Y r u 6 5 u 5 5 y 3 > 4 w S Y Y A N M ! F M F M 0 n N B V -XPXmXmXKX",
"' ] m ( P D Z j T n u 5 5 @ O O + 7 a r q R ' Z 4 i 3 7 a w e l T a 5 < X X = y 5 + > e Z B b F F F ( D i 8 , w 0 N N h.:XlXlXlX",
"( _ N D D D Q ( Z w 6 6 u a y 5 O 3 6 e Z Y r Z 6 i a p 4 , e Z u r , < y y 5 p p + + o 4 n M F S M ( / q 4 4 5 > ; m ] ) fX>XlX",
"] Q 3 i S S Z 0 3 % 7 3 6 a u 4 w a e 9 l A f 9 0 4 0 0 8 9 9 g j : , e Z a a 5 5 + 3 3 i Z i n i S a Z Z a y 5 < X r e ' P.>XlX",
"S S i 8 q 0 i % 3 % 3 + 4 i l g Z Z l D k V R L P B N m ( ( V B f f A Z S u 4 6 3 3 6 6 p a 7 3 6 S a 6 a u 5 y < > o 8 S ` I.lX",
"v.F F q 8 r ; a 3 3 3 0 N F F K L a.v.Q.~.M.M.b.T.g.a.) E f.f.P U f.K.f.F.Y w i w w 7 % % 7 t % p a p u y + O O + X 5 r 4 G [ ,X",
"D F M n w r w ; , i F ' v.b.L.M.~.7XpX6X3X6X6X5X6X4X~.Y.g.r.i.r.R.{.~.T.L.f.F i 7 3 % p p t p p p t u a 6 X .   O   + w i N ` =X",
"G 8 i p 7 a 5 : h ) M.-XB.1XqX8X8X0X0X0X0X0X0X0X8X8X6X3X.X^. X]..X-X].~.].b.) B r 4 O % $ = = t 3 p p t 5 # @ @ .   = t T S ! >X",
"' M 0 y O 7 , 1 K j.B.2X1X2X2X2X0X0XeXxXxXeXwXeXkXsXdX0X8X9X6XqX X7X3X/.7X~.h.R M u 5 5 = t t p p p t # # . X . . . t t a a n.-X",
"K.Y y 5 < y : f g./.2XwXwXwXwXwXwXeXxXcXcXgXgXjXkXkXfXdXdXdX8XdX8X8X9X3X1X].Q.a.D l 4 5 5 $ % = $ @ .             X X < 4 i [ -X",
"' ' a < y , 2 ) E. X9XwXeXrXeXeXwXiXxXcXcXgXkXbXLXjXfXdXfXpXpX8X0X9X0X3X.X7XXXP.) A r 6 6 y $ = = @ @         5 Z Z : : 8 i ` ,X",
"Y R n < : ; j R. X1X9XeXrXiXrXrXwXxXxXxXcXhXkXkXjXjXfXfXdX8X8X0X0X9X8X9XXX.X7X'.L.] V : > % $ @ = -   & &   + Y (.P.F.f 8 q ( >X",
"' Q n 8 ; : R ~./.%X2XeXrXrXrXwXrXxXrXeXgXgXgXgXjXkXkXfXdXsXsXdX8X3X8X6X5X]..X^.T.L.f.j o o @ $ @ @ & @     + D ] G.|.d.1 , i / ",
">X=X/ 4 ; 2 f.E.B.A.+X2XeXeXrXeXeXrXeXtXeXrXeXgXgXgXgXdXdX0X8X8X9X7X3X5X5X].{.^.E.Q.(.R 9 o X O $ = =     + o f H.H.)._.f 4 i T ",
">X>X} 3 4 9 v.B.S.S.A. X2XtXwXeXeXwXhXcXcXcXxXhXcXcXgXgXdXsX8XsX6X6X6X:XaXXXXX.X.X~.{.h.( w + O O - X X   o ; P ).J.).{.D 4 a p ",
"=X=X_ 7 , 9 g.B.B.A.%X X+XwXtXtXeXeXxXcXcXcXxXcXcXbXgXfXjXpX].XX'.-XaX{.{.[.{.XX X.X~.U.f.Y r + O   X # ; ; D (.XXOX_.}.] , > # ",
"=Xn._ i 4 q a.B.V.S. X2X9X0XeXeXhXgXxXcXnXnXnXjXjXjXlXfXaX`.f.) ) P P P ) ) d.x.N.E.E.Y.(.d.m > o < < u R ] P._.XXXX_.}.F.o o X ",
"} [ / i , 1 ~ M.N.A.0XeXgXwXhXxXrXxXgXhXhXbXjXfXfXJX:XP.] D m l V A P P E ~ =.i.s.x.E.Y.!.`.f.9 4 0 u r T F.(.H.).XX[.}.F.o 5 a ",
"n.{ / i 4 2 L M./. X3XdXgXkXeXwXwXwX0XqX0XdX6X'.G.R A e 8 r S ] F.P.(.(.`.Q.M.M.E.E.7X7X~.{.T.) , 4 l r A F.(.sX^.W.[.(.P.: X  .",
"[ [ _ G p p G b.s.b.Y.-X5X5XXX3X3X3X3X1X^.Y.i.H s 2 2 r e Z T R D V V U i.j.M.].7XpX6X5XXX^.E.'.f.q 8 g f G.T.XXXXU.}._.|.8 3 I.",
"[ n.[ _ / G N C h V C P E ) f.G./././.E.s.r.H f s A A l T ] T : 1 k P i.j.M././.~.6X6X]..X/.E.W.{.F.m 9 f d._.XXE.^.}.{.|.q S ;X",
"=Xn.{ _ _ / i 7 : ; ; : , 8 j j E s.U.Y.M.g.s.i.d.f.) A E |.F.R G.`.:X^.~.7X7X7X4X~.].5X.XN.N.W.~.P.R q f E H.x.Y.XXaX[.].h _ =X",
"#X{ { { ^ { Q i V F R S 8 ; o : 1 V a.~.4X5X^.M.U.U.G.) ) ) F.(.{.|.^.~.7X8X9X6X4X5X4X^.^.^.E.N._.(.f.M V H i.].XXE._.XXaXh ` =X",
"#X#X#XC.C.C.C.t.~ a.C f ] T ; 2 2 ` ) ~.3X9X XN.x.M.j.s.j.x.x.Y.W.E.^.XX8XdX8X6X7X5X-X^.^.W.W.W.W.(.L.C h P g.E.3XXXkXfX|.s ) >X",
"VXyXyXyXyXyXyXqXt.K s f ' F.( A ' b.~ {.3X2X XA.N.N.M.M.E.M.J. X XOXXX9X0XsXdX8X6X5X.X^.E.E.W.W._.T.U.a.' h.j.W. XoXoXGX|.< n.yX",
"SXSXSXyXiXNXvXNXqXt.r.K E i.d.j.L.j.j.zXzXzX3XB.N.B.E. XW. X XN.W. X XoX.X3X5X5X6X5X7X^./.~.E.Y.M.!.E.U.b.b.x.E. XoXfX}.T ; v.mX",
"AXAXZXCXVXVXuXCXiXV.c.x.k.x.x.H.x.x.7XLXPXPXNX1XB.B. X XoX2X2X XoX1X3X3X9X6X8X6X6X5X].].].^.E.U.!.M.M.M.b.M.g.s.x.^.G.A ; > ^ mX",
"UXAXSXVXBXBXBXVXCXS.m.S.N.N.N.J.N.c.gXLXPXPXAXgXA.N.c.B.9X3X1X3X9XoX9X9X9XsXpXpXsXXX~.~.~.~.Y.U.U.!.M.M.M.L.f.i.i.=.U 2 o L qXyX",
"AXSXSXVXBXBXBXBXuXA.m.A.oX+XS.S.m. XMXMXMXMXMXgX3X XM.c.N. X X1X9X0XdXsXdXdXsXsXaX].{.~.~.~.Y.M.U.b.U.M.b.b.g.a.a.g.) 2 H '.qX%X",
"AXCXVXVXBXBXBXiXuX*Xu.Z.N.S.A.A.A.wXnXcXcXMXnXgXhXkX+Xc.c.OX X XoX9XdXgXdXdXsXpX4X{.'.^.{.~.Y.M.T.j.j.b.b.h.j.a.r.a.f.H =.B.S.Z.",
"MXCXBXBX&X&X&X&X&X%Xy.m.S.A.A.A.%XwXeXrXxXnXhXkXkXkXsXOXc.x. X X X3XsXdXdXsXpXaX].'.'.T.~.Q.T.!.L.U.U.L.g.a.s.a.a.j.g.r.v *.y.Z.",
"uXuX&X&X&X$X$X$X%XZ.u.u.m.A. XoX1X%X2XqX0XzX9X1XXX^.W.x.s.M.6X-X/. X5XsXsXfXpXaXXX{.'.'.Q.Q.T.U.U.b.b.b.s.p.j.i.~ a.x.x.x ..>.D.",
"uXiXyX*X&X$X$X$X$X*Xu.u.V.A. X3X9XB.c.^./.E.M.f.j.g.i.I s.^.aXpX].-X].XXaXpXpX}.[.[.'.T.U.Q.'.T.L.b.j.h.x.s.s.i.i.s.x.z.:.9.9.9.",
"ZXCXCXVXZXBXBXVXVXVXyXu.V.B.XXXXsXXXz.i.) P d.f.G.E E E i.G.h.T.!.!.:XpX4X{.[.[.'.Q.T.'.T.Q.Q.Q.!.K.b.h.g.g.i.=.t.p.y.<.9.6.6.7.",
"AXZXZXZXZXZXZXZXVXVXCXV.m.N. XXXXXXXk.k 2 r ] Y l s l A V V V P I P d.T.`.`.{.'.'.{.Q.j.g.b.U.b.P.b.L.h.f.a.) =.l.:.>.9.6.6.7.7.",
"UXUXUXUXDXDXDXZXZXZXCXuXm.m.m.^.R.i.k 2 1 8 u Z , r e j s l s A h f V P ) R.aX[.[.H.i.i.j.R.T.U.G.f.P.G.' i.I =.*.;.6.6.6.8.5.%.",
"UXUXUXUXDXDXDXZXVXBXiXuXS.y.N.c.v d d s s 2 1 9 : , r e r l l A A j k h k E h.U.i.K I j.Q.U.G.R.h.h.f.d.,.,.&.*.@.#.6.4.5.>.*.x ",
"UXIXPXIXPXAXVXiXiXiX*X*XZ.y.D.*...;.:.*.o.o.v W H 2 : l 2 : f l m 9 9 f h k V H U a.T.{.Q.R.L.j.j.a.) E =.X.@.@.6.3.2.1.%.*.c 2 ",
"PXPXPXPXPXSXNXyX*XS.Z.Z.Z.D.>.>.9.e.e.e.e.<.e.).H.c 2 s l l s j s j A V V H E i.U.!.T.L.h.L.L.a.a.i.U ..X.@.$.1.3.3.3.5.X.x : y ",
"lXfXfXaXaX-X~.M.c.t.J -.*.;.6.w.w.0.q.0.q.0.8.>.:.-.&.,.G.d.,.F.d.j.I.(.`.`._.(.(.R.I.K.b.F.h.f.r.J ..@.5.1.#.#.6.#.$.%.x 2 ; # ",
"G.G.G.L.G.G.d.i.=.&.J v v ;.8.q.q.q.q.q.q.4.+.;.<.H.H.H.H.G.G.H.{.~.aX:X:X[.'._.(.L.K.K.F.f.d.k.J &.@.#.1.1.#.#.5.$.%.x 2 ; O @ ",
"J.J.R.H.H.G.H.k.,.,.-.v ..;.0.q.w.q.q.q.4.6.@.-.H.d.E R E E d.!.].].4X{.[.{.`.(.L.G.f.a.a.g.,.*...@.6.6.2.1.#.5.%.%.c 1 o O $ * ",
"(._._.J.H.H.H.z.z.l.:.-.;.>.w.w.q.0.0.7.4.#...&.c 1 2 2 A P g.4X'.'.[.'.'.`.T.L.j.d.d.d.p.=...X.$.3.3.2.1.#.#.%.%.v 1 # O - $ = ",
"J._.).).J._.J.H.z.p.:.-.>.>.7.0.w.6.7.7.6.$.o.c s 2 2 l R A g.~..X^.].`.Q.P.b.a.i.a.k.l.-.o.@.5.6.4.2.1.+.+.$.%.c 1 o O $ $ $ = ",
"_._.).)._.J.(.J.H.c.l.:.>.y.y.9.9.6.7.6.$.X...x d r j D F.i.`.~.^.'.].!.!.h.g.i.i.s.p.X.@.$.8.3.4.5.1.#.+.$.X.x 1 o X @ = $ % = ",
"_._._._._._.J.H.x.z.l.:.;.y.>.>.;.y.D.:.:.&.-.,.U j j R F.(.:X`.~.T.T.U.b.g.i.r.p.-.X.@.5.8.4.2.1.1.+.+.$.X.c 2 # . @ & # % % t ",
"J._.J._.)._._.J.J.H.l.l.:.>.;.t.-.y.l.-.l.U ,.k.W A k d.P.`.`.}.(.U.U.g.a.i.I =...X.$.7.8.4.2.2.#.+.+.@.o.z 1 o @ @ & & # O % % ",
").).).).OX).J.W.J.z.z.<.:.-.-.t.^ ^ K K H H i.i.,.P E G.P.G.(.H.G.G.d.,.W U ....@.$.e.8.8.4.1.#.+.O.+.o.x 2 X * @ * = $ $ O % p ",
").).).).).).).).J.H.z.l.:.*.*.t.^ G V h h d k W ,.,.G.G.G.G.G.G.) E I U J v ..X.O.#.8.5.4.5.1.+.O.O.%.x 2 # & & @ @ $ - - - t a ",
").).).).).).).J.x.x.c.c.y.t.t.t.` ! a.H z &...z c W W ] E d.E W W U H J v o.@.+.O.+.+.#.3.5.1.+.O.O.x s ; & * * @ * - - - 3 p a ",
").|.|.).OX).W.W.W.M.c.l.-.t.t.t.v.` f.=.&.-...o.z z d d d d d z c d z v ..@.$.$.3.$.+.$.#.#.+.O.O.x s : & & & & * * O O % p p a ",
"|.|.|.).).OXoXkXgXdX8X1XS.u.t.t.^ C K K J ,.,.o.o.o.o.x x z x x =.-.-.*.@.$.>.6.1.$.$.O.O.O.O.%.x d # @ * * & & * - - % 3 w a a ",
"|.+XOXOX+XhXnXnXMXMXPXPXAXnXeXqXB.K C K K U :.X.O.O.O.%.X.X.o...,.,.<.;.$.$.#.1.1.5.5.$.O.O.%.o.d r @ . * & @ @ $ - O % i a a a ",
"oX+X+X+XtXrXhXrXcXMXMXnXnXMXvXvXcXeXV.^ K I v X.O.O.O.O.O.X.o.....-.%.$.1.4.3.2.5.5.5.5.O.o.o.d : # @ $ @ $ @ # $ - $ t a a S a ",
"oXoXoXoXrX+X+XwXwXzXxXcXxXcXhXeXrXrX0XB.b.r.&.-.X.O.$.$.O.O.O.o.z =.:.+.4.4.1.1.5.5.5.5.O.o.x s < @ . $ $ @ # # $ % = p a S Q a "
};
