/* XPM */
static char *_270987c56194e64933d1d4d3dfb90e1YF67lEBVYWQabvYe[] = {
/* columns rows colors chars-per-pixel */
"64 64 203 2 ",
"   c #040201",
".  c #0A0501",
"X  c #070803",
"o  c #0B0905",
"O  c #060608",
"+  c #070908",
"@  c #0D0C0B",
"#  c #130500",
"$  c #130C04",
"%  c #1A0D00",
"&  c #120E0B",
"*  c #0F100C",
"=  c #1B1106",
"-  c #13120D",
";  c #1A140C",
":  c #18140A",
">  c #0E0E11",
",  c #110F10",
"<  c #0E1312",
"1  c #151514",
"2  c #191612",
"3  c #171814",
"4  c #1B1915",
"5  c #151519",
"6  c #191718",
"7  c #161919",
"8  c #1C1B1B",
"9  c #210E00",
"0  c #241404",
"q  c #22160C",
"w  c #221A0E",
"e  c #2B1B0C",
"r  c #231C14",
"t  c #2B1F12",
"y  c #221E1B",
"u  c #1F201B",
"i  c #262017",
"p  c #292217",
"a  c #23211D",
"s  c #2B251C",
"d  c #312214",
"f  c #31261B",
"g  c #342A1D",
"h  c #38281B",
"j  c #1E1E21",
"k  c #211F20",
"l  c #1F2121",
"z  c #242423",
"x  c #2A2622",
"c  c #272823",
"v  c #2C2A25",
"b  c #29272B",
"n  c #2C2C2B",
"m  c #272729",
"M  c #322C24",
"N  c #322E2A",
"B  c #3A2E20",
"V  c #2F302A",
"C  c #33322D",
"Z  c #3B352B",
"A  c #3A3329",
"S  c #363432",
"D  c #3A3631",
"F  c #3C3A34",
"G  c #393738",
"H  c #3D3D3A",
"J  c #363735",
"K  c #402E20",
"L  c #413326",
"P  c #483727",
"I  c #46372A",
"U  c #4B3A2B",
"Y  c #44382A",
"T  c #423C33",
"R  c #423E3A",
"E  c #483E35",
"W  c #45423B",
"Q  c #4B443C",
"!  c #444035",
"~  c #534535",
"^  c #54473A",
"/  c #564A3C",
"(  c #5C4B3B",
")  c #454543",
"_  c #4A4742",
"`  c #4C4A45",
"'  c #4D4C4A",
"]  c #47484A",
"[  c #524C44",
"{  c #5F4F40",
"}  c #514E4A",
"|  c #54524C",
" . c #5B554D",
".. c #575046",
"X. c #4F5150",
"o. c #555451",
"O. c #595653",
"+. c #5C5953",
"@. c #5D5C5B",
"#. c #575956",
"$. c #614F41",
"%. c #635446",
"&. c #63594F",
"*. c #6B594B",
"=. c #635C55",
"-. c #625F5A",
";. c #6B5D50",
":. c #6A6157",
">. c #63615C",
",. c #6C645B",
"<. c #646055",
"1. c #72665A",
"2. c #78685A",
"3. c #646460",
"4. c #696663",
"5. c #6B6965",
"6. c #6C6C6A",
"7. c #676863",
"8. c #756D64",
"9. c #706E6B",
"0. c #74726C",
"q. c #7D756C",
"w. c #7D7165",
"e. c #757471",
"r. c #797672",
"t. c #7C7A74",
"y. c #7E7C7A",
"u. c #907F6F",
"i. c #837C74",
"p. c #8A7E75",
"a. c #837F79",
"s. c #7F807A",
"d. c #898076",
"f. c #84837D",
"g. c #8B847C",
"h. c #93867B",
"j. c #97897B",
"k. c #868582",
"l. c #8D8A84",
"z. c #8D8C8A",
"x. c #8C8781",
"c. c #948C84",
"v. c #9D8E83",
"b. c #928F8A",
"n. c #8E908F",
"m. c #969186",
"M. c #95928C",
"N. c #9C948C",
"B. c #9B9187",
"V. c #959591",
"C. c #9B9692",
"Z. c #9B9993",
"A. c #A69586",
"S. c #A2948B",
"D. c #A2988C",
"F. c #A49A91",
"G. c #A29E98",
"H. c #A99B92",
"J. c #9EA09F",
"K. c #A4A19C",
"L. c #ACA59D",
"P. c #B3A29A",
"I. c #A2A5A2",
"U. c #AAA7A3",
"Y. c #ABA9A6",
"T. c #ADAFAC",
"R. c #B6ACA3",
"E. c #B5B3AE",
"W. c #BAB3AC",
"Q. c #BAB0A4",
"!. c #B6B6B2",
"~. c #BAB7B2",
"^. c #B7B8B0",
"/. c #BBBAB5",
"(. c #BBBBBB",
"). c #C7B7AA",
"_. c #C1BBB6",
"`. c #C3C2BD",
"'. c #CAC5BF",
"]. c #C9C1B6",
"[. c #D2C4B9",
"{. c #C5C4C2",
"}. c #CAC7C3",
"|. c #CBC9C5",
" X c #CCCCCA",
".X c #C6C7C9",
"XX c #D1CCC6",
"oX c #D0CDC8",
"OX c #CFD0CB",
"+X c #D3D2CD",
"@X c #D5D5D3",
"#X c #DADAD5",
"$X c #DCDCDA",
"%X c #D7D5D4",
"&X c #E4DFDB",
"*X c #E2E2DD",
"=X c #E7E8E0",
"-X c #E8E8E6",
";X c #F2F2EE",
":X c #F4F5F2",
">X c #FCFBF3",
",X c #FEFEFA",
"<X c #FDFDFB",
/* pixels */
"- 3 1 1 u < < : $ = 0 = = = * * 3 1 4 > 1 1 8 3 8 8 @ 3 1 * 4 1 1 1 k , , 6 , 8 6 , , , 6 6 & 6 6 1 8 @ 1 @ 7 @ < 7 > 5 j > 5 5 ",
"3 3 1 * 7 < u c i d t $ = Z v C 8 1 4 4 3 1 1 @ @   V @ - z c @ , 1 k , @ 6 , , O k k , , y 6 5 1 & 4 1 8 8 1 > 7 z 1 O 5 b > j ",
"3 7 1 < < < u Z j.2.d e w m.K.o.z @ @ 4 1 3 4 1 a 8 + 8 8 + + 8 1 ,   8 k > k 6 k j , , 6 1 6 6 1 4 y 6 1 1 @ l @ O 1 b O 5 > j ",
"- 3 3 3 u < 3 s d./ . = i L.>.X @ 1 3 u @ @ 3 z @ < 4 * - z 3 8 z , k j , k . k 6 , o 6 k , , 6 4 1 @ + u 1 1 1 m 8 O j j > j > ",
"- 3 3 3 u < * 4 i.~ e # w.m.  3 1 1 @ + 7 4 * o 3 + + o 1   z +   6   > O O , O O 1 k , 5 8 , , @ 1 7 * u   @ + O 1 5 O 5 5 5 > ",
"3 3 * * 7 7 3 i H.~ # h N.B * u l ' ` * 8 l H #.n o.#.3.7.) O H 6.#.] 6.@.@.] O.#.j 6 , 6 y O S V @ s 3 H @.6.6.X.O l j O j 5 5 ",
": 3 - 1 7 < 3 a B.A # h.w.  V   @ M.!.C -   5.+X- 0.,Xy.k.<X| 0.-X9.,X{.z.+XD %XZ.> X 1 8 1 X z.z.  X * 7.<XY.k.&Xy.> 7 O z 5 > ",
"* 3 4 7 7 < @ 4 h.P U A.% = - a   y.z.  - o ' M.  ' %Xo   >.#XH O 1 {.4.O }   (.4.  y y & @ 1 @X^.+ u @ a @Xu   >.:Xj @ j 5 @ j ",
"2 1 , 1 y , , r D.( j.( # f 2 1 X f.V.X - - F k.  >.|.4 o H *Xa 6 o .X3.o 8 @ {.6.  1 2 * 1 C /.OXa * * V +XV X 8 $XH 1 - 1 4 > ",
"- 2 1 1 5 5 2 r H.j.).j.% % & 8   e.Z.X 3 X _ l.  W /.; 4 R +X4 2 X |.3.o 4 X {.4.o 1 4 3 @ 6.#.^.>.* * H +Xu u 1 $Xm + u < > j ",
"; 2 2 , 6 5 ; r H.j.*.[.A q 2 r X 8.Z.. r X } b.  o.U.o   Z.M.. 2 X }.>.X 3   `.4.o 4 4 -   ^.u J.Z.X   V #X3 X V.Y.  * y + l 1 ",
"2 2 , 5 6 , , r A.%.# 2.).= y & . r.M.X 4 $ W Z.  O.oXZ./.E.C . 8 O }.>.  3   `.0.  @ 8 4 n E.  5.^.u u F :Xs.T.(.W X 7 1 1 z + ",
"; 2 1 , 6 5 ; r u.$.# 0 ).;.. y   g.l.. 3 & Z Z.  } '. .>XN . z 4 o |.>.+ 3 X `.@.  s 4   e.#XE.'.:XV X v *Xs.;X@.  x * 4 4 @ 4 ",
"- 2 1 1 y , , t S.E % e B }.x &   i.M.. : $ W l.  =.#X- C.x.o $ 4 X |.>.X 4   `.5.o 3 o - U.o.Z u `.f.X H |.u 0.I.  u * 3 1 @ l ",
"; 2 , 1 6 5 , t P.K e 9 # N.S.6   +.L.& - . :.0.. } ].- r XXG & 2 . }.-.X 3 X `.5.o 1 - J V.- & X s.`.X V =Xu * #X7.X 3 @ 1 z * ",
"; 2 - 1 6 6 , y v.;.# q ; L _.O.. D ~.w &   a.-.  } '..   i.~.# ;   {.-.. 3 . `.7.  3 C r.f.X 4 : v *Xu c $XC   ` |.8 - 1 @ z @ ",
"1 - 2 2 & & z T m.=.M = . r ,.!.W   9.Y.-.b.U.; o t.%Xr y - C.a.. C }.t.; ; s ].'.t.K.F.G.b.2 2 * F =X>.>.;X) 4 + b.k.k 1 6 @ 6 ",
"r - - 2 2 ; y v C x y 4 - & a F T - # R 4...k & r D D N & y N E ; s E F y - s _ _ M _ W W E $ ; * v W J S W C 1 X G G 5 1 6 , 6 ",
"1 & & 2 4 2 1 2   - 3 1 - 3 -   o 2 2 , r @ . y 2 & X y 2 - . - 4 4   ; a $ y   . ; & $ o . 2 2 * 3 X * - X 1 - 1 X @ 6 , 6 6 , ",
"2 , 2 2 4 1 & & 1 4 2 - - 4 a 4 & - y 1   2 N o 1 & x o k $ k - 4 - - 2 2 1 ; 1 - a 2 & - ; k & : : c * & z @ - 4 & 6 6 & 1 k , ",
"3 1 3 3 2 - - 1 3 3 2 ; - * - 1 a 6 + @ k y , @ 8 1 @ 1 6 1 2 7 4 @ y 1 1 k @ y 4 1 & 1 6 y 1 & 3 3 @ 3 3 o 4 4 & 6 k , , 6 6 6 ",
"- ; 3 - 1 - 3 4 1 @ 1 4 4 - * 3 1 8 1 5 8 O O m 1 5 1 7 1 1 , 5 2 6 , 1 5 > 5 , 6 @ 5 1 5 5 @ 6 * u o 3 3 * 8 3 1 6 @ , k , @ 6 ",
"1 1 1 1 - 1 1 3 7 1 1 4 4 3 7 8 5 1 5 < > 7 j 1 > 7 n > 5 > 7 1 , j 5 6 5 > 5 , j 5 6 6 5 , , 6 : * s - - v - 1 y 1 @ , k , , , ",
"- 1 1 - 1 1 1 - 4 4 1 * @ 1 @ + < 1 5 1 < > > > 7 5 > 1 7 5 5 5 5 > 6 5 > j 5 5 5 5 5 5 5 5 j , u * - 1 - - * 8 , & 6 6 , 6 k , ",
"3 3 1 - 3 1 1 1 u   @ u 3 H V G b 5 + m j G ] b > 5 < 5 , z > < > 5 j @ k , , 6 @ k 5 6 5 > 5 6 3 4 - - 2 - - 1 1 2 5 5 - 5 - 2 ",
"1 1 1 3 1 < 1 1 < z 4 + < e.:X%Xz l < > ] %X.XJ 5 5 l > 1 5 5 m j 1 , 8 > 5 , 6 b . @ 5 6 y O k 4 4 1 - 2 - 1 1 1 1 5 1 2 5 5 5 ",
"3 1 1 3 < 3 7 3 + l < @ + <  XT.  1 5 O O (.y.O 1 6 < 7 6 , , @ , 1 5 & k & k r.S 6 k 2 > k 6 S s 4 - 1 1 - 1 1 1 2 1 1 2 5 5 ; ",
"1 1 3 1 7 3 < < 7 < @ z l O J.-Xz 1 7 8 k  XG & > 1 O z 1 1 1 &   1 . . k @   G 2 2 . 2 $ @ ; y v - - - - 3 1 4 1 2 1 1 5 - 5 5 ",
"< 7 < 3 5 3 3 5 u 7 7 < @   X.<X]   8   o. X& & 8 o } N . k y 4.g.l.8.O.# a E W O.; s | -.Z i M H - - 3 - 2 - 2 - 5 5 ; - 5 5 ; ",
"1 3 7 3 7 < 7 < @ + 7 3 3 m l :Xl.  N   C.i.. k 2   }.+.O y @ Y._.M &.R.P.# . g.w.. =.A T T . T | 3 4 4 1 4 & 1 2 - 5 5 2 5 5 5 ",
"< < 7 < < 3 < 3 m 7 < < < < O !.#X  & r +XR o y $ x &XC.. 2   G.c.  $ = P.8.. i.,.% h.. . p . T +.- 4 4 & 8 & 2 5 - 2 5 5 , ; 5 ",
"7 3 < 7 3 5 7 < + 7 3 7 3 < @ 6.,Xx & _ }.& - - & | G._.. 2 & h.i.# = # ^ R.. i.1.= p.$ 0 q = M  .. - 3 & y , 6 1 2 - 5 5 5 ; 5 ",
"5 1 1 3 1 1 1 3 1 7 5 1 < 1 7 z <X#.O V.k.  y - . C.T }.Z 2 . Z.i.. q % Z _.# 8.;.= x.[ . ; r M } - 1 1 u 1 1 1 1 1 5 5 1 5 1 5 ",
"1 1 1 5 1 1 5 1 1 1 1 1 1 5 2 1 *XI.  {.] 1 a $ F M.  L.a.  r M.i.. r # ; W.; h.8.. t B.-.#   E O.- - @ 1 @ 1 1 1 1 1 5 5 1 5 5 ",
"1 1 1 1 1 1 1 1 1 1 1 1 4 5 , + z.$Xm  X@ @ 3 X -.~.8.}./.. X h.p.  r r M W.% ,.1.; w M p.-.$ M | - 1 - 4 1 7 8 1 1 5 1 5 1 5 5 ",
"1 1 1 1 3 5 5 1 1 1 1 1 5 4 1 + ) :Xn.V.+ - 3 * b.a.0.9.XXN X M.w.  q . A F.= q.-.% . . p v.# g ` @ 1 1 8 1 7 1 1 1 1 5 1 5 5 5 ",
"7 1 1 1 1 5 1 1 1 1 1 1 1 1 1 1 l $X%XJ 1 4 o z Z.- o   `.W o g.g.% 2 . =.d.. =.8.. x ; r  .Q a W * 1 - 3 * 1 @ 1 1 3 5 5 5 5 5 ",
"1 1 5 1 1 1 1 3 1 5 5 1 1 1 1 7 O I.$X+ @ 4 o >.k.  & o m.K.. h.t.. $ A c.[   8.-.= p = $ 1.= x ' 3 7 * 1 * 1 1 1 1 5 1 1 5 5 5 ",
"5 1 1 1 1 1 1 1 1 7 1 1 1 1 3 8   0.J.1 8 1 z f.r.- 4 - o.+Xv c.~.0.q.a.+..   c.r.a ` s >.+.. | ` 3 4 1 3 * 4 5 1 5 5 5 5 5 5 5 ",
"1 1 1 1 5 1 1 1 1 1 1 1 5 1 1 1 - C H   v   u ) W & 3 X _ ) s ` Q [ _ N   y s N N 2 E =.F $ i 4 F * 1 * 3 1 5 1 1 1 1 5 1 < 5 5 ",
"3 1 1 1 5 1 1 1 3 1 1 1 1 1 1 1 8 - - 4 4 2 - - X - 4 2 - - - o & $ & & - - : ; - - - - - : - - - 3 1 1 1 1 3 1 1 1 5 < 7 5 5 5 ",
"1 1 1 3 1 1 5 1 1 5 1 5 1 1 1 1 - - - : 3 4 - * 4 1 - 3 - - - 4 , 1 - 2 : 3 3 3 ; 1 - ; - : - 3 3 - 3 1 1 1 1 1 5 3 5 3 5 1 5 5 ",
"5 1 1 1 1 5 3 1 1 1 1 5 5 1 1 1 4 2 2 : - - 4 4 3 * - 8 8 1 1 4 3 3 2 4 3 3 3 3 3 3 3 3 3 3 3 1 3 3 3 1 1 1 1 1 1 1 5 5 5 5 5 5 ",
"1 1 1 5 1 1 1 1 1 1 1 1 1 3 1 1 2 $ $ 2 2 - : 4 - 1 1 3 3 1 1 1 3 3 3 1 1 3 - - 3 3 ; 3 3 3 3 1 3 - - 1 1 1 1 3 1 1 5 1 1 1 5 5 ",
"1 1 1 1 1 5 3 < 1 5 1 1 1 1 1 2 - : ; r i 4 ; - 3 y 8 - @ 5 7 1 1 1 1 1 1 < < 1 1 1 1 1 1 1 1 1 : 3 3 - 1 1 1 1 1 1 1 5 5 1 5 5 ",
"1 5 1 3 1 1 1 5 1 1 1 3 1 1 1 1 : r 4 .   : ; X X - 1 - 1 7 4 , 3 3 3 3 1 1 1 < 1 1 1 1 3 1 1 3 3 < 3 1 1 1 1 1 1 1 7 1 1 5 5 5 ",
"1 1 5 1 1 1 3 1 1 1 3 1 1 1 1 1 $ r v C N M C D 4 & @ 4 l 7 , < 4 3 3 3 3 1 3 3 3 3 3 3 3 7 3 3 - 3 - 1 1 1 1 1 1 1 5 5 5 5 5 5 ",
"1 5 1 1 1 5 1 1 5 1 1 1 5 1 1 2 3 s >.R.W.c.d.F.-.M o 1 3 @ > k 1 1 1 1 1 1 3 3 1 3 1 1 3 < 1 1 3 3 1 1 1 1 1 1 1 5 1 5 1 5 < 5 ",
"3 1 1 5 1 1 1 1 1 1 1 1 5 1 1 1 - $ s m.1.$ % U j.%.% q q 5 , 5 3 3 3 u 7 X u o & 1 c 4 O 6 y , 1 1 3 3 5 1 1 1 1 1 1 1 1 1 1 1 ",
"1 1 1 1 1 1 7 1 1 1 3 1 1 1 1 1 : : i :.~ 0 9 % ( d.d . ; y ; ; * * 3   3 3 - u 8 + + & 6 8 5 > < 1 1 1 4 1 1 1 1 1 1 1 5 3 5 1 ",
"1 1 1 1 5 1 1 3 5 1 1 1 1 1 1 1 2 : s 1.Y 9 0 % P 2.h f y $ y 2 i F 3   D Q D 4 4 n v 8 y 8 k b 1 1 1 7 1 1 5 1 5 1 1 1 3 5 1 1 ",
"1 3 5 1 1 1 1 5 1 1 1 5 1 1 1 3 3 X s 1.B $ 0 0 P *.I p.8.y r & ! 0.a | >.` +.x H r.+.1 . 8 } r.1 1 1 1 5 3 1 1 1 1 1 5 1 1 1 1 ",
"1 5 1 1 1 1 1 1 1 1 1 3 1 1 1 1 4 $ g  .d e e . $.2.# M E $ . r u W X 8.M   4 4 . } R - - r k S 1 1 1 1 5 1 3 1 1 1 7 1 1 5 1 1 ",
"1 1 5 1 1 1 1 1 1 1 5 1 5 1 3 1 u : V  .f = = 0 2.;.q E Q y 5 & i ! s <.- $ = 4 r ` s & ; 5 Z } - < 1 1 5 1 5 1 1 1 1 1 1 1 1 1 ",
"1 5 3 1 5 1 1 1 1 1 1 1 1 1 1 1 -   p ..f $ w / 1.f # [ M # j ; p ! p A p g r # = E x r t # x R 1 1 1 1 1 5 3 1 1 5 1 1 1 1 1 5 ",
"1 1 1 1 3 1 1 5 1 5 5 1 1 1 1 1 3 3 g ! !  .;.i.f w = Q R y @ 5 i ! X Z [ $ ; = 2 _ x = & & A M & 1 1 1 5 3 7 6 1 1 1 1 5 1 1 3 ",
"1 5 1 1 1 1 1 1 1 3 1 1 5 1 1 1 3 : : W p i s ; = r $ N N . 4 ; : / : o  . .A X t Q 4 y = ; M Z 1 1 1 3 1 5 1 1 1 1 1 1 5 1 1 1 ",
"1 1 1 3 1 3 5 1 1 1 3 1 1 1 1 1 : : 3 ! s : ; $ $ ; - D F 1 8 - V g w w   w  .s . E s r q & y N 1 5 1 5 1 1 1 1 5 1 1 1 1 3 1 5 ",
"1 1 1 5 1 5 1 1 5 1 1 1 1 1 1 1 3 * u W s : : X 2 r & v v & - o : ! : o w : s T ; W a . 1 ; N D 1 1 1 3 7 1 1 1 1 1 1 1 3 1 1 1 ",
"1 1 1 1 1 1 5 1 1 1 1 5 1 1 1 3 : * u F a * 3 u 2 1 & x n 8 8 3 s A : : u : u s - N M - 2 & N k 1 1 1 5 1 1 1 1 1 3 5 1 1 5 1 1 ",
"5 5 3 1 1 5 3 1 1 1 1 1 1 1 1 1 - - s V s - - 7 - 1 2 z m 4 -   ! V 3 3 o * s C - 1 N 4   @ R c 1 1 1 1 5 1 1 1 1 1 3 5 1 1 1 1 ",
"3 < 1 1 1 1 1 1 1 5 1 3 5 1 3 1 : 3 C V V u * - 8 1 - 1 8 a m c #.X c Q : V #.- y o a n z G ] 4 1 1 1 1 3 1 1 1 5 1 1 1 1 5 1 1 ",
"1 1 1 5 1 1 1 1 1 1 5 1 1 1 1 1 3 u C u c u < - 1 < 1 1 u G ) #.v u u v | ) a 3 @ + 8 H ] ' m   1 1 1 1 5 1 1 1 1 1 1 1 5 1 5 1 ",
"5 1 1 1 1 5 1 3 1 5 1 1 1 1 1 1 * : a   < 3 1 1 < 1 4 1 - 3 * * * : * X u u X u 1 z & & + 1 O c 1 1 1 7 3 5 1 1 1 1 1 1 1 1 1 3 "
};
